G04 #@! TF.GenerationSoftware,KiCad,Pcbnew,(5.1.2)-1*
G04 #@! TF.CreationDate,2019-07-14T14:04:16+02:00*
G04 #@! TF.ProjectId,C64-Switchless-Quad-Kernal-Switcher,4336342d-5377-4697-9463-686c6573732d,1.20*
G04 #@! TF.SameCoordinates,Original*
G04 #@! TF.FileFunction,Legend,Bot*
G04 #@! TF.FilePolarity,Positive*
%FSLAX46Y46*%
G04 Gerber Fmt 4.6, Leading zero omitted, Abs format (unit mm)*
G04 Created by KiCad (PCBNEW (5.1.2)-1) date 2019-07-14 14:04:16*
%MOMM*%
%LPD*%
G04 APERTURE LIST*
%ADD10C,0.150000*%
%ADD11C,0.120000*%
G04 APERTURE END LIST*
D10*
X119149285Y-57967571D02*
X119006428Y-58015190D01*
X118958809Y-58062809D01*
X118911190Y-58158047D01*
X118911190Y-58300904D01*
X118958809Y-58396142D01*
X119006428Y-58443761D01*
X119101666Y-58491380D01*
X119482619Y-58491380D01*
X119482619Y-57491380D01*
X119149285Y-57491380D01*
X119054047Y-57539000D01*
X119006428Y-57586619D01*
X118958809Y-57681857D01*
X118958809Y-57777095D01*
X119006428Y-57872333D01*
X119054047Y-57919952D01*
X119149285Y-57967571D01*
X119482619Y-57967571D01*
X118577857Y-57491380D02*
X118339761Y-58491380D01*
X118149285Y-57777095D01*
X117958809Y-58491380D01*
X117720714Y-57491380D01*
X117387380Y-58205666D02*
X116911190Y-58205666D01*
X117482619Y-58491380D02*
X117149285Y-57491380D01*
X116815952Y-58491380D01*
X115911190Y-58396142D02*
X115958809Y-58443761D01*
X116101666Y-58491380D01*
X116196904Y-58491380D01*
X116339761Y-58443761D01*
X116435000Y-58348523D01*
X116482619Y-58253285D01*
X116530238Y-58062809D01*
X116530238Y-57919952D01*
X116482619Y-57729476D01*
X116435000Y-57634238D01*
X116339761Y-57539000D01*
X116196904Y-57491380D01*
X116101666Y-57491380D01*
X115958809Y-57539000D01*
X115911190Y-57586619D01*
X115482619Y-58491380D02*
X115482619Y-57491380D01*
X114911190Y-58491380D02*
X115339761Y-57919952D01*
X114911190Y-57491380D02*
X115482619Y-58062809D01*
X113768333Y-57586619D02*
X113720714Y-57539000D01*
X113625476Y-57491380D01*
X113387380Y-57491380D01*
X113292142Y-57539000D01*
X113244523Y-57586619D01*
X113196904Y-57681857D01*
X113196904Y-57777095D01*
X113244523Y-57919952D01*
X113815952Y-58491380D01*
X113196904Y-58491380D01*
X112577857Y-57491380D02*
X112482619Y-57491380D01*
X112387380Y-57539000D01*
X112339761Y-57586619D01*
X112292142Y-57681857D01*
X112244523Y-57872333D01*
X112244523Y-58110428D01*
X112292142Y-58300904D01*
X112339761Y-58396142D01*
X112387380Y-58443761D01*
X112482619Y-58491380D01*
X112577857Y-58491380D01*
X112673095Y-58443761D01*
X112720714Y-58396142D01*
X112768333Y-58300904D01*
X112815952Y-58110428D01*
X112815952Y-57872333D01*
X112768333Y-57681857D01*
X112720714Y-57586619D01*
X112673095Y-57539000D01*
X112577857Y-57491380D01*
X111292142Y-58491380D02*
X111863571Y-58491380D01*
X111577857Y-58491380D02*
X111577857Y-57491380D01*
X111673095Y-57634238D01*
X111768333Y-57729476D01*
X111863571Y-57777095D01*
X110815952Y-58491380D02*
X110625476Y-58491380D01*
X110530238Y-58443761D01*
X110482619Y-58396142D01*
X110387380Y-58253285D01*
X110339761Y-58062809D01*
X110339761Y-57681857D01*
X110387380Y-57586619D01*
X110435000Y-57539000D01*
X110530238Y-57491380D01*
X110720714Y-57491380D01*
X110815952Y-57539000D01*
X110863571Y-57586619D01*
X110911190Y-57681857D01*
X110911190Y-57919952D01*
X110863571Y-58015190D01*
X110815952Y-58062809D01*
X110720714Y-58110428D01*
X110530238Y-58110428D01*
X110435000Y-58062809D01*
X110387380Y-58015190D01*
X110339761Y-57919952D01*
X122395428Y-55681571D02*
X122728761Y-55681571D01*
X122728761Y-56205380D02*
X122728761Y-55205380D01*
X122252571Y-55205380D01*
X121728761Y-56205380D02*
X121824000Y-56157761D01*
X121871619Y-56110142D01*
X121919238Y-56014904D01*
X121919238Y-55729190D01*
X121871619Y-55633952D01*
X121824000Y-55586333D01*
X121728761Y-55538714D01*
X121585904Y-55538714D01*
X121490666Y-55586333D01*
X121443047Y-55633952D01*
X121395428Y-55729190D01*
X121395428Y-56014904D01*
X121443047Y-56110142D01*
X121490666Y-56157761D01*
X121585904Y-56205380D01*
X121728761Y-56205380D01*
X120966857Y-56205380D02*
X120966857Y-55538714D01*
X120966857Y-55729190D02*
X120919238Y-55633952D01*
X120871619Y-55586333D01*
X120776380Y-55538714D01*
X120681142Y-55538714D01*
X119014476Y-56110142D02*
X119062095Y-56157761D01*
X119204952Y-56205380D01*
X119300190Y-56205380D01*
X119443047Y-56157761D01*
X119538285Y-56062523D01*
X119585904Y-55967285D01*
X119633523Y-55776809D01*
X119633523Y-55633952D01*
X119585904Y-55443476D01*
X119538285Y-55348238D01*
X119443047Y-55253000D01*
X119300190Y-55205380D01*
X119204952Y-55205380D01*
X119062095Y-55253000D01*
X119014476Y-55300619D01*
X118157333Y-55205380D02*
X118347809Y-55205380D01*
X118443047Y-55253000D01*
X118490666Y-55300619D01*
X118585904Y-55443476D01*
X118633523Y-55633952D01*
X118633523Y-56014904D01*
X118585904Y-56110142D01*
X118538285Y-56157761D01*
X118443047Y-56205380D01*
X118252571Y-56205380D01*
X118157333Y-56157761D01*
X118109714Y-56110142D01*
X118062095Y-56014904D01*
X118062095Y-55776809D01*
X118109714Y-55681571D01*
X118157333Y-55633952D01*
X118252571Y-55586333D01*
X118443047Y-55586333D01*
X118538285Y-55633952D01*
X118585904Y-55681571D01*
X118633523Y-55776809D01*
X117204952Y-55538714D02*
X117204952Y-56205380D01*
X117443047Y-55157761D02*
X117681142Y-55872047D01*
X117062095Y-55872047D01*
X115776380Y-56205380D02*
X115871619Y-56157761D01*
X115919238Y-56062523D01*
X115919238Y-55205380D01*
X115252571Y-56205380D02*
X115347809Y-56157761D01*
X115395428Y-56110142D01*
X115443047Y-56014904D01*
X115443047Y-55729190D01*
X115395428Y-55633952D01*
X115347809Y-55586333D01*
X115252571Y-55538714D01*
X115109714Y-55538714D01*
X115014476Y-55586333D01*
X114966857Y-55633952D01*
X114919238Y-55729190D01*
X114919238Y-56014904D01*
X114966857Y-56110142D01*
X115014476Y-56157761D01*
X115109714Y-56205380D01*
X115252571Y-56205380D01*
X114490666Y-55538714D02*
X114490666Y-56205380D01*
X114490666Y-55633952D02*
X114443047Y-55586333D01*
X114347809Y-55538714D01*
X114204952Y-55538714D01*
X114109714Y-55586333D01*
X114062095Y-55681571D01*
X114062095Y-56205380D01*
X113157333Y-55538714D02*
X113157333Y-56348238D01*
X113204952Y-56443476D01*
X113252571Y-56491095D01*
X113347809Y-56538714D01*
X113490666Y-56538714D01*
X113585904Y-56491095D01*
X113157333Y-56157761D02*
X113252571Y-56205380D01*
X113443047Y-56205380D01*
X113538285Y-56157761D01*
X113585904Y-56110142D01*
X113633523Y-56014904D01*
X113633523Y-55729190D01*
X113585904Y-55633952D01*
X113538285Y-55586333D01*
X113443047Y-55538714D01*
X113252571Y-55538714D01*
X113157333Y-55586333D01*
X112681142Y-56205380D02*
X112681142Y-55205380D01*
X112681142Y-55586333D02*
X112585904Y-55538714D01*
X112395428Y-55538714D01*
X112300190Y-55586333D01*
X112252571Y-55633952D01*
X112204952Y-55729190D01*
X112204952Y-56014904D01*
X112252571Y-56110142D01*
X112300190Y-56157761D01*
X112395428Y-56205380D01*
X112585904Y-56205380D01*
X112681142Y-56157761D01*
X111633523Y-56205380D02*
X111728761Y-56157761D01*
X111776380Y-56110142D01*
X111824000Y-56014904D01*
X111824000Y-55729190D01*
X111776380Y-55633952D01*
X111728761Y-55586333D01*
X111633523Y-55538714D01*
X111490666Y-55538714D01*
X111395428Y-55586333D01*
X111347809Y-55633952D01*
X111300190Y-55729190D01*
X111300190Y-56014904D01*
X111347809Y-56110142D01*
X111395428Y-56157761D01*
X111490666Y-56205380D01*
X111633523Y-56205380D01*
X110443047Y-56205380D02*
X110443047Y-55681571D01*
X110490666Y-55586333D01*
X110585904Y-55538714D01*
X110776380Y-55538714D01*
X110871619Y-55586333D01*
X110443047Y-56157761D02*
X110538285Y-56205380D01*
X110776380Y-56205380D01*
X110871619Y-56157761D01*
X110919238Y-56062523D01*
X110919238Y-55967285D01*
X110871619Y-55872047D01*
X110776380Y-55824428D01*
X110538285Y-55824428D01*
X110443047Y-55776809D01*
X109966857Y-56205380D02*
X109966857Y-55538714D01*
X109966857Y-55729190D02*
X109919238Y-55633952D01*
X109871619Y-55586333D01*
X109776380Y-55538714D01*
X109681142Y-55538714D01*
X108919238Y-56205380D02*
X108919238Y-55205380D01*
X108919238Y-56157761D02*
X109014476Y-56205380D01*
X109204952Y-56205380D01*
X109300190Y-56157761D01*
X109347809Y-56110142D01*
X109395428Y-56014904D01*
X109395428Y-55729190D01*
X109347809Y-55633952D01*
X109300190Y-55586333D01*
X109204952Y-55538714D01*
X109014476Y-55538714D01*
X108919238Y-55586333D01*
D11*
X110380000Y-64710000D02*
X112030000Y-64710000D01*
X110380000Y-74990000D02*
X110380000Y-64710000D01*
X115680000Y-74990000D02*
X110380000Y-74990000D01*
X115680000Y-64710000D02*
X115680000Y-74990000D01*
X114030000Y-64710000D02*
X115680000Y-64710000D01*
X112030000Y-64710000D02*
G75*
G03X114030000Y-64710000I1000000J0D01*
G01*
X105470000Y-92770000D02*
X102810000Y-92770000D01*
X105470000Y-64770000D02*
X105470000Y-92770000D01*
X102810000Y-64770000D02*
X102810000Y-92770000D01*
X105470000Y-64770000D02*
X102810000Y-64770000D01*
X105470000Y-63500000D02*
X105470000Y-62170000D01*
X105470000Y-62170000D02*
X104140000Y-62170000D01*
X118050000Y-92770000D02*
X119380000Y-92770000D01*
X118050000Y-91440000D02*
X118050000Y-92770000D01*
X118050000Y-90170000D02*
X120710000Y-90170000D01*
X120710000Y-90170000D02*
X120710000Y-62170000D01*
X118050000Y-90170000D02*
X118050000Y-62170000D01*
X118050000Y-62170000D02*
X120710000Y-62170000D01*
D10*
X113791904Y-63162380D02*
X113791904Y-63971904D01*
X113744285Y-64067142D01*
X113696666Y-64114761D01*
X113601428Y-64162380D01*
X113410952Y-64162380D01*
X113315714Y-64114761D01*
X113268095Y-64067142D01*
X113220476Y-63971904D01*
X113220476Y-63162380D01*
X112220476Y-64162380D02*
X112791904Y-64162380D01*
X112506190Y-64162380D02*
X112506190Y-63162380D01*
X112601428Y-63305238D01*
X112696666Y-63400476D01*
X112791904Y-63448095D01*
X104473333Y-93178380D02*
X104473333Y-93892666D01*
X104520952Y-94035523D01*
X104616190Y-94130761D01*
X104759047Y-94178380D01*
X104854285Y-94178380D01*
X103473333Y-94178380D02*
X104044761Y-94178380D01*
X103759047Y-94178380D02*
X103759047Y-93178380D01*
X103854285Y-93321238D01*
X103949523Y-93416476D01*
X104044761Y-93464095D01*
X119713333Y-93051380D02*
X119713333Y-93765666D01*
X119760952Y-93908523D01*
X119856190Y-94003761D01*
X119999047Y-94051380D01*
X120094285Y-94051380D01*
X119284761Y-93146619D02*
X119237142Y-93099000D01*
X119141904Y-93051380D01*
X118903809Y-93051380D01*
X118808571Y-93099000D01*
X118760952Y-93146619D01*
X118713333Y-93241857D01*
X118713333Y-93337095D01*
X118760952Y-93479952D01*
X119332380Y-94051380D01*
X118713333Y-94051380D01*
M02*
