G04 #@! TF.GenerationSoftware,KiCad,Pcbnew,(5.1.2)-1*
G04 #@! TF.CreationDate,2019-07-14T14:04:16+02:00*
G04 #@! TF.ProjectId,C64-Switchless-Quad-Kernal-Switcher,4336342d-5377-4697-9463-686c6573732d,1.20*
G04 #@! TF.SameCoordinates,Original*
G04 #@! TF.FileFunction,Copper,L2,Bot*
G04 #@! TF.FilePolarity,Positive*
%FSLAX46Y46*%
G04 Gerber Fmt 4.6, Leading zero omitted, Abs format (unit mm)*
G04 Created by KiCad (PCBNEW (5.1.2)-1) date 2019-07-14 14:04:16*
%MOMM*%
%LPD*%
G04 APERTURE LIST*
%ADD10O,1.700000X1.700000*%
%ADD11R,1.700000X1.700000*%
%ADD12R,1.600000X1.600000*%
%ADD13O,1.600000X1.600000*%
%ADD14C,1.600000*%
%ADD15C,0.800000*%
%ADD16C,0.500000*%
%ADD17C,0.250000*%
%ADD18C,0.254000*%
G04 APERTURE END LIST*
D10*
X109220000Y-66040000D03*
X116840000Y-73660000D03*
X109220000Y-68580000D03*
X116840000Y-71120000D03*
X109220000Y-71120000D03*
X116840000Y-68580000D03*
X109220000Y-73660000D03*
D11*
X116840000Y-66040000D03*
D12*
X106680000Y-58420000D03*
D13*
X121920000Y-91440000D03*
X106680000Y-60960000D03*
X121920000Y-88900000D03*
X106680000Y-63500000D03*
X121920000Y-86360000D03*
X106680000Y-66040000D03*
X121920000Y-83820000D03*
X106680000Y-68580000D03*
X121920000Y-81280000D03*
X106680000Y-71120000D03*
X121920000Y-78740000D03*
X106680000Y-73660000D03*
X121920000Y-76200000D03*
X106680000Y-76200000D03*
X121920000Y-73660000D03*
X106680000Y-78740000D03*
X121920000Y-71120000D03*
X106680000Y-81280000D03*
X121920000Y-68580000D03*
X106680000Y-83820000D03*
X121920000Y-66040000D03*
X106680000Y-86360000D03*
X121920000Y-63500000D03*
X106680000Y-88900000D03*
X121920000Y-60960000D03*
X106680000Y-91440000D03*
X121920000Y-58420000D03*
D14*
X104140000Y-58420000D03*
X104140000Y-60920000D03*
D11*
X104140000Y-63500000D03*
D10*
X104140000Y-66040000D03*
X104140000Y-68580000D03*
X104140000Y-71120000D03*
X104140000Y-73660000D03*
X104140000Y-76200000D03*
X104140000Y-78740000D03*
X104140000Y-81280000D03*
X104140000Y-83820000D03*
X104140000Y-86360000D03*
X104140000Y-88900000D03*
X104140000Y-91440000D03*
X119380000Y-63500000D03*
X119380000Y-66040000D03*
X119380000Y-68580000D03*
X119380000Y-71120000D03*
X119380000Y-73660000D03*
X119380000Y-76200000D03*
X119380000Y-78740000D03*
X119380000Y-81280000D03*
X119380000Y-83820000D03*
X119380000Y-86360000D03*
X119380000Y-88900000D03*
D11*
X119380000Y-91440000D03*
X121920000Y-96520000D03*
D10*
X119380000Y-96520000D03*
X116840000Y-96520000D03*
X114300000Y-96520000D03*
X111760000Y-96520000D03*
X109220000Y-96520000D03*
X106680000Y-96520000D03*
X104140000Y-96520000D03*
D14*
X114300000Y-88900000D03*
D13*
X114300000Y-78740000D03*
X111760000Y-78740000D03*
D14*
X111760000Y-88900000D03*
X116840000Y-88900000D03*
D13*
X116840000Y-78740000D03*
D15*
X111663480Y-71127620D03*
D16*
X104140000Y-58420000D02*
X106680000Y-58420000D01*
X106680000Y-58420000D02*
X109220000Y-58420000D01*
X119380000Y-63500000D02*
X119380000Y-58420000D01*
X109220000Y-58420000D02*
X119380000Y-58420000D01*
X119380000Y-58420000D02*
X121920000Y-58420000D01*
X114300000Y-94615000D02*
X114300000Y-96520000D01*
X114935000Y-93980000D02*
X114300000Y-94615000D01*
X122515002Y-93980000D02*
X114935000Y-93980000D01*
X123170001Y-93325001D02*
X122515002Y-93980000D01*
X121920000Y-78740000D02*
X123170001Y-79990001D01*
X123170001Y-79990001D02*
X123170001Y-93325001D01*
X105469999Y-62249999D02*
X104140000Y-60920000D01*
X107280001Y-62249999D02*
X105469999Y-62249999D01*
X114300000Y-69269998D02*
X107280001Y-62249999D01*
X116840000Y-73660000D02*
X114300000Y-73660000D01*
X114300000Y-73660000D02*
X114300000Y-69269998D01*
X119380000Y-66040000D02*
X121920000Y-66040000D01*
D17*
X114935000Y-60960000D02*
X106680000Y-60960000D01*
X115425001Y-61450001D02*
X114935000Y-60960000D01*
X115425001Y-68904003D02*
X115425001Y-61450001D01*
X116465997Y-69944999D02*
X115425001Y-68904003D01*
X118204999Y-69944999D02*
X116465997Y-69944999D01*
X119380000Y-71120000D02*
X118204999Y-69944999D01*
D16*
X109227620Y-71127620D02*
X109220000Y-71120000D01*
X111663480Y-71127620D02*
X109227620Y-71127620D01*
D18*
G36*
X114665001Y-68866681D02*
G01*
X114661325Y-68904003D01*
X114665001Y-68941325D01*
X114665001Y-68941335D01*
X114675998Y-69052988D01*
X114714927Y-69181323D01*
X114719455Y-69196249D01*
X114790027Y-69328279D01*
X114829872Y-69376829D01*
X114885000Y-69444004D01*
X114914003Y-69467807D01*
X115661448Y-70215251D01*
X115599294Y-70290986D01*
X115461401Y-70548966D01*
X115376487Y-70828889D01*
X115347815Y-71120000D01*
X115376487Y-71411111D01*
X115461401Y-71691034D01*
X115599294Y-71949014D01*
X115687123Y-72056033D01*
X115407522Y-72297448D01*
X115169226Y-72603092D01*
X114995137Y-72949352D01*
X114911240Y-73225931D01*
X115149514Y-73533000D01*
X116713000Y-73533000D01*
X116713000Y-73513000D01*
X116967000Y-73513000D01*
X116967000Y-73533000D01*
X116987000Y-73533000D01*
X116987000Y-73787000D01*
X116967000Y-73787000D01*
X116967000Y-75351170D01*
X117274069Y-75588763D01*
X117642011Y-75467020D01*
X117979133Y-75275834D01*
X118272478Y-75022552D01*
X118439079Y-74808866D01*
X118550986Y-74900706D01*
X118605791Y-74930000D01*
X118550986Y-74959294D01*
X118324866Y-75144866D01*
X118139294Y-75370986D01*
X118001401Y-75628966D01*
X117916487Y-75908889D01*
X117887815Y-76200000D01*
X117916487Y-76491111D01*
X118001401Y-76771034D01*
X118139294Y-77029014D01*
X118324866Y-77255134D01*
X118550986Y-77440706D01*
X118605791Y-77470000D01*
X118550986Y-77499294D01*
X118324866Y-77684866D01*
X118139294Y-77910986D01*
X118081653Y-78018825D01*
X118038932Y-77938899D01*
X117859608Y-77720392D01*
X117641101Y-77541068D01*
X117391808Y-77407818D01*
X117121309Y-77325764D01*
X116910492Y-77305000D01*
X116769508Y-77305000D01*
X116558691Y-77325764D01*
X116288192Y-77407818D01*
X116038899Y-77541068D01*
X115820392Y-77720392D01*
X115641068Y-77938899D01*
X115570000Y-78071858D01*
X115498932Y-77938899D01*
X115319608Y-77720392D01*
X115101101Y-77541068D01*
X114851808Y-77407818D01*
X114581309Y-77325764D01*
X114370492Y-77305000D01*
X114229508Y-77305000D01*
X114018691Y-77325764D01*
X113748192Y-77407818D01*
X113498899Y-77541068D01*
X113280392Y-77720392D01*
X113101068Y-77938899D01*
X113030000Y-78071858D01*
X112958932Y-77938899D01*
X112779608Y-77720392D01*
X112561101Y-77541068D01*
X112311808Y-77407818D01*
X112041309Y-77325764D01*
X111830492Y-77305000D01*
X111689508Y-77305000D01*
X111478691Y-77325764D01*
X111208192Y-77407818D01*
X110958899Y-77541068D01*
X110740392Y-77720392D01*
X110561068Y-77938899D01*
X110427818Y-78188192D01*
X110345764Y-78458691D01*
X110318057Y-78740000D01*
X110345764Y-79021309D01*
X110427818Y-79291808D01*
X110561068Y-79541101D01*
X110740392Y-79759608D01*
X110958899Y-79938932D01*
X111208192Y-80072182D01*
X111478691Y-80154236D01*
X111689508Y-80175000D01*
X111830492Y-80175000D01*
X112041309Y-80154236D01*
X112311808Y-80072182D01*
X112561101Y-79938932D01*
X112779608Y-79759608D01*
X112958932Y-79541101D01*
X113030000Y-79408142D01*
X113101068Y-79541101D01*
X113280392Y-79759608D01*
X113498899Y-79938932D01*
X113748192Y-80072182D01*
X114018691Y-80154236D01*
X114229508Y-80175000D01*
X114370492Y-80175000D01*
X114581309Y-80154236D01*
X114851808Y-80072182D01*
X115101101Y-79938932D01*
X115319608Y-79759608D01*
X115498932Y-79541101D01*
X115570000Y-79408142D01*
X115641068Y-79541101D01*
X115820392Y-79759608D01*
X116038899Y-79938932D01*
X116288192Y-80072182D01*
X116558691Y-80154236D01*
X116769508Y-80175000D01*
X116910492Y-80175000D01*
X117121309Y-80154236D01*
X117391808Y-80072182D01*
X117641101Y-79938932D01*
X117859608Y-79759608D01*
X118038932Y-79541101D01*
X118081653Y-79461175D01*
X118139294Y-79569014D01*
X118324866Y-79795134D01*
X118550986Y-79980706D01*
X118605791Y-80010000D01*
X118550986Y-80039294D01*
X118324866Y-80224866D01*
X118139294Y-80450986D01*
X118001401Y-80708966D01*
X117916487Y-80988889D01*
X117887815Y-81280000D01*
X117916487Y-81571111D01*
X118001401Y-81851034D01*
X118139294Y-82109014D01*
X118324866Y-82335134D01*
X118550986Y-82520706D01*
X118605791Y-82550000D01*
X118550986Y-82579294D01*
X118324866Y-82764866D01*
X118139294Y-82990986D01*
X118001401Y-83248966D01*
X117916487Y-83528889D01*
X117887815Y-83820000D01*
X117916487Y-84111111D01*
X118001401Y-84391034D01*
X118139294Y-84649014D01*
X118324866Y-84875134D01*
X118550986Y-85060706D01*
X118605791Y-85090000D01*
X118550986Y-85119294D01*
X118324866Y-85304866D01*
X118139294Y-85530986D01*
X118001401Y-85788966D01*
X117916487Y-86068889D01*
X117887815Y-86360000D01*
X117916487Y-86651111D01*
X118001401Y-86931034D01*
X118139294Y-87189014D01*
X118324866Y-87415134D01*
X118550986Y-87600706D01*
X118605791Y-87630000D01*
X118550986Y-87659294D01*
X118324866Y-87844866D01*
X118139294Y-88070986D01*
X118082690Y-88176886D01*
X117954637Y-87985241D01*
X117754759Y-87785363D01*
X117519727Y-87628320D01*
X117258574Y-87520147D01*
X116981335Y-87465000D01*
X116698665Y-87465000D01*
X116421426Y-87520147D01*
X116160273Y-87628320D01*
X115925241Y-87785363D01*
X115725363Y-87985241D01*
X115570000Y-88217759D01*
X115414637Y-87985241D01*
X115214759Y-87785363D01*
X114979727Y-87628320D01*
X114718574Y-87520147D01*
X114441335Y-87465000D01*
X114158665Y-87465000D01*
X113881426Y-87520147D01*
X113620273Y-87628320D01*
X113385241Y-87785363D01*
X113185363Y-87985241D01*
X113030000Y-88217759D01*
X112874637Y-87985241D01*
X112674759Y-87785363D01*
X112439727Y-87628320D01*
X112178574Y-87520147D01*
X111901335Y-87465000D01*
X111618665Y-87465000D01*
X111341426Y-87520147D01*
X111080273Y-87628320D01*
X110845241Y-87785363D01*
X110645363Y-87985241D01*
X110488320Y-88220273D01*
X110380147Y-88481426D01*
X110325000Y-88758665D01*
X110325000Y-89041335D01*
X110380147Y-89318574D01*
X110488320Y-89579727D01*
X110645363Y-89814759D01*
X110845241Y-90014637D01*
X111080273Y-90171680D01*
X111341426Y-90279853D01*
X111618665Y-90335000D01*
X111901335Y-90335000D01*
X112178574Y-90279853D01*
X112439727Y-90171680D01*
X112674759Y-90014637D01*
X112874637Y-89814759D01*
X113030000Y-89582241D01*
X113185363Y-89814759D01*
X113385241Y-90014637D01*
X113620273Y-90171680D01*
X113881426Y-90279853D01*
X114158665Y-90335000D01*
X114441335Y-90335000D01*
X114718574Y-90279853D01*
X114979727Y-90171680D01*
X115214759Y-90014637D01*
X115414637Y-89814759D01*
X115570000Y-89582241D01*
X115725363Y-89814759D01*
X115925241Y-90014637D01*
X116160273Y-90171680D01*
X116421426Y-90279853D01*
X116698665Y-90335000D01*
X116981335Y-90335000D01*
X117258574Y-90279853D01*
X117519727Y-90171680D01*
X117754759Y-90014637D01*
X117954637Y-89814759D01*
X118082690Y-89623114D01*
X118139294Y-89729014D01*
X118324866Y-89955134D01*
X118354687Y-89979607D01*
X118285820Y-90000498D01*
X118175506Y-90059463D01*
X118078815Y-90138815D01*
X117999463Y-90235506D01*
X117940498Y-90345820D01*
X117904188Y-90465518D01*
X117891928Y-90590000D01*
X117891928Y-92290000D01*
X117904188Y-92414482D01*
X117940498Y-92534180D01*
X117999463Y-92644494D01*
X118078815Y-92741185D01*
X118175506Y-92820537D01*
X118285820Y-92879502D01*
X118405518Y-92915812D01*
X118530000Y-92928072D01*
X120230000Y-92928072D01*
X120354482Y-92915812D01*
X120474180Y-92879502D01*
X120584494Y-92820537D01*
X120681185Y-92741185D01*
X120760537Y-92644494D01*
X120819502Y-92534180D01*
X120855812Y-92414482D01*
X120856621Y-92406272D01*
X120900392Y-92459608D01*
X121118899Y-92638932D01*
X121368192Y-92772182D01*
X121638691Y-92854236D01*
X121849508Y-92875000D01*
X121990492Y-92875000D01*
X122201309Y-92854236D01*
X122471808Y-92772182D01*
X122721101Y-92638932D01*
X122939608Y-92459608D01*
X123118932Y-92241101D01*
X123165001Y-92154912D01*
X123165001Y-95172706D01*
X123124494Y-95139463D01*
X123014180Y-95080498D01*
X122894482Y-95044188D01*
X122770000Y-95031928D01*
X121070000Y-95031928D01*
X120945518Y-95044188D01*
X120825820Y-95080498D01*
X120715506Y-95139463D01*
X120618815Y-95218815D01*
X120539463Y-95315506D01*
X120480498Y-95425820D01*
X120459607Y-95494687D01*
X120435134Y-95464866D01*
X120209014Y-95279294D01*
X119951034Y-95141401D01*
X119671111Y-95056487D01*
X119452950Y-95035000D01*
X119307050Y-95035000D01*
X119088889Y-95056487D01*
X118808966Y-95141401D01*
X118550986Y-95279294D01*
X118324866Y-95464866D01*
X118139294Y-95690986D01*
X118110000Y-95745791D01*
X118080706Y-95690986D01*
X117895134Y-95464866D01*
X117669014Y-95279294D01*
X117411034Y-95141401D01*
X117131111Y-95056487D01*
X116912950Y-95035000D01*
X116767050Y-95035000D01*
X116548889Y-95056487D01*
X116268966Y-95141401D01*
X116010986Y-95279294D01*
X115903967Y-95367123D01*
X115662552Y-95087522D01*
X115356908Y-94849226D01*
X115010648Y-94675137D01*
X114734069Y-94591240D01*
X114427000Y-94829514D01*
X114427000Y-96393000D01*
X114447000Y-96393000D01*
X114447000Y-96647000D01*
X114427000Y-96647000D01*
X114427000Y-98210486D01*
X114734069Y-98448760D01*
X115010648Y-98364863D01*
X115356908Y-98190774D01*
X115662552Y-97952478D01*
X115903967Y-97672877D01*
X116010986Y-97760706D01*
X116268966Y-97898599D01*
X116548889Y-97983513D01*
X116767050Y-98005000D01*
X116912950Y-98005000D01*
X117131111Y-97983513D01*
X117411034Y-97898599D01*
X117669014Y-97760706D01*
X117895134Y-97575134D01*
X118080706Y-97349014D01*
X118110000Y-97294209D01*
X118139294Y-97349014D01*
X118324866Y-97575134D01*
X118550986Y-97760706D01*
X118808966Y-97898599D01*
X119088889Y-97983513D01*
X119307050Y-98005000D01*
X119452950Y-98005000D01*
X119671111Y-97983513D01*
X119951034Y-97898599D01*
X120209014Y-97760706D01*
X120435134Y-97575134D01*
X120459607Y-97545313D01*
X120480498Y-97614180D01*
X120539463Y-97724494D01*
X120618815Y-97821185D01*
X120715506Y-97900537D01*
X120825820Y-97959502D01*
X120945518Y-97995812D01*
X121070000Y-98008072D01*
X122770000Y-98008072D01*
X122894482Y-97995812D01*
X123014180Y-97959502D01*
X123124494Y-97900537D01*
X123165001Y-97867294D01*
X123165001Y-100305000D01*
X102895000Y-100305000D01*
X102895000Y-97340980D01*
X102899294Y-97349014D01*
X103084866Y-97575134D01*
X103310986Y-97760706D01*
X103568966Y-97898599D01*
X103848889Y-97983513D01*
X104067050Y-98005000D01*
X104212950Y-98005000D01*
X104431111Y-97983513D01*
X104711034Y-97898599D01*
X104969014Y-97760706D01*
X105195134Y-97575134D01*
X105380706Y-97349014D01*
X105410000Y-97294209D01*
X105439294Y-97349014D01*
X105624866Y-97575134D01*
X105850986Y-97760706D01*
X106108966Y-97898599D01*
X106388889Y-97983513D01*
X106607050Y-98005000D01*
X106752950Y-98005000D01*
X106971111Y-97983513D01*
X107251034Y-97898599D01*
X107509014Y-97760706D01*
X107735134Y-97575134D01*
X107920706Y-97349014D01*
X107950000Y-97294209D01*
X107979294Y-97349014D01*
X108164866Y-97575134D01*
X108390986Y-97760706D01*
X108648966Y-97898599D01*
X108928889Y-97983513D01*
X109147050Y-98005000D01*
X109292950Y-98005000D01*
X109511111Y-97983513D01*
X109791034Y-97898599D01*
X110049014Y-97760706D01*
X110275134Y-97575134D01*
X110460706Y-97349014D01*
X110490000Y-97294209D01*
X110519294Y-97349014D01*
X110704866Y-97575134D01*
X110930986Y-97760706D01*
X111188966Y-97898599D01*
X111468889Y-97983513D01*
X111687050Y-98005000D01*
X111832950Y-98005000D01*
X112051111Y-97983513D01*
X112331034Y-97898599D01*
X112589014Y-97760706D01*
X112696033Y-97672877D01*
X112937448Y-97952478D01*
X113243092Y-98190774D01*
X113589352Y-98364863D01*
X113865931Y-98448760D01*
X114173000Y-98210486D01*
X114173000Y-96647000D01*
X114153000Y-96647000D01*
X114153000Y-96393000D01*
X114173000Y-96393000D01*
X114173000Y-94829514D01*
X113865931Y-94591240D01*
X113589352Y-94675137D01*
X113243092Y-94849226D01*
X112937448Y-95087522D01*
X112696033Y-95367123D01*
X112589014Y-95279294D01*
X112331034Y-95141401D01*
X112051111Y-95056487D01*
X111832950Y-95035000D01*
X111687050Y-95035000D01*
X111468889Y-95056487D01*
X111188966Y-95141401D01*
X110930986Y-95279294D01*
X110704866Y-95464866D01*
X110519294Y-95690986D01*
X110490000Y-95745791D01*
X110460706Y-95690986D01*
X110275134Y-95464866D01*
X110049014Y-95279294D01*
X109791034Y-95141401D01*
X109511111Y-95056487D01*
X109292950Y-95035000D01*
X109147050Y-95035000D01*
X108928889Y-95056487D01*
X108648966Y-95141401D01*
X108390986Y-95279294D01*
X108164866Y-95464866D01*
X107979294Y-95690986D01*
X107950000Y-95745791D01*
X107920706Y-95690986D01*
X107735134Y-95464866D01*
X107509014Y-95279294D01*
X107251034Y-95141401D01*
X106971111Y-95056487D01*
X106752950Y-95035000D01*
X106607050Y-95035000D01*
X106388889Y-95056487D01*
X106108966Y-95141401D01*
X105850986Y-95279294D01*
X105624866Y-95464866D01*
X105439294Y-95690986D01*
X105410000Y-95745791D01*
X105380706Y-95690986D01*
X105195134Y-95464866D01*
X104969014Y-95279294D01*
X104711034Y-95141401D01*
X104431111Y-95056487D01*
X104212950Y-95035000D01*
X104067050Y-95035000D01*
X103848889Y-95056487D01*
X103568966Y-95141401D01*
X103310986Y-95279294D01*
X103084866Y-95464866D01*
X102899294Y-95690986D01*
X102895000Y-95699020D01*
X102895000Y-92964426D01*
X103000867Y-93055834D01*
X103337989Y-93247020D01*
X103705931Y-93368763D01*
X104013000Y-93131170D01*
X104013000Y-91567000D01*
X104267000Y-91567000D01*
X104267000Y-93131170D01*
X104574069Y-93368763D01*
X104942011Y-93247020D01*
X105279133Y-93055834D01*
X105448031Y-92910003D01*
X105567047Y-93013112D01*
X105895331Y-93200011D01*
X106253769Y-93319274D01*
X106553000Y-93081064D01*
X106553000Y-91567000D01*
X106807000Y-91567000D01*
X106807000Y-93081064D01*
X107106231Y-93319274D01*
X107464669Y-93200011D01*
X107792953Y-93013112D01*
X108078467Y-92765759D01*
X108310239Y-92467458D01*
X108479362Y-92129672D01*
X108559270Y-91866230D01*
X108320341Y-91567000D01*
X106807000Y-91567000D01*
X106553000Y-91567000D01*
X104267000Y-91567000D01*
X104013000Y-91567000D01*
X103993000Y-91567000D01*
X103993000Y-91313000D01*
X104013000Y-91313000D01*
X104013000Y-91293000D01*
X104267000Y-91293000D01*
X104267000Y-91313000D01*
X106553000Y-91313000D01*
X106553000Y-91293000D01*
X106807000Y-91293000D01*
X106807000Y-91313000D01*
X108320341Y-91313000D01*
X108559270Y-91013770D01*
X108479362Y-90750328D01*
X108310239Y-90412542D01*
X108078467Y-90114241D01*
X107792953Y-89866888D01*
X107758821Y-89847456D01*
X107878932Y-89701101D01*
X108012182Y-89451808D01*
X108094236Y-89181309D01*
X108121943Y-88900000D01*
X108094236Y-88618691D01*
X108012182Y-88348192D01*
X107878932Y-88098899D01*
X107699608Y-87880392D01*
X107481101Y-87701068D01*
X107348142Y-87630000D01*
X107481101Y-87558932D01*
X107699608Y-87379608D01*
X107878932Y-87161101D01*
X108012182Y-86911808D01*
X108094236Y-86641309D01*
X108121943Y-86360000D01*
X108094236Y-86078691D01*
X108012182Y-85808192D01*
X107878932Y-85558899D01*
X107699608Y-85340392D01*
X107481101Y-85161068D01*
X107348142Y-85090000D01*
X107481101Y-85018932D01*
X107699608Y-84839608D01*
X107878932Y-84621101D01*
X108012182Y-84371808D01*
X108094236Y-84101309D01*
X108121943Y-83820000D01*
X108094236Y-83538691D01*
X108012182Y-83268192D01*
X107878932Y-83018899D01*
X107699608Y-82800392D01*
X107481101Y-82621068D01*
X107348142Y-82550000D01*
X107481101Y-82478932D01*
X107699608Y-82299608D01*
X107878932Y-82081101D01*
X108012182Y-81831808D01*
X108094236Y-81561309D01*
X108121943Y-81280000D01*
X108094236Y-80998691D01*
X108012182Y-80728192D01*
X107878932Y-80478899D01*
X107699608Y-80260392D01*
X107481101Y-80081068D01*
X107348142Y-80010000D01*
X107481101Y-79938932D01*
X107699608Y-79759608D01*
X107878932Y-79541101D01*
X108012182Y-79291808D01*
X108094236Y-79021309D01*
X108121943Y-78740000D01*
X108094236Y-78458691D01*
X108012182Y-78188192D01*
X107878932Y-77938899D01*
X107699608Y-77720392D01*
X107481101Y-77541068D01*
X107348142Y-77470000D01*
X107481101Y-77398932D01*
X107699608Y-77219608D01*
X107878932Y-77001101D01*
X108012182Y-76751808D01*
X108094236Y-76481309D01*
X108121943Y-76200000D01*
X108094236Y-75918691D01*
X108012182Y-75648192D01*
X107878932Y-75398899D01*
X107699608Y-75180392D01*
X107481101Y-75001068D01*
X107348142Y-74930000D01*
X107481101Y-74858932D01*
X107699608Y-74679608D01*
X107878932Y-74461101D01*
X107921653Y-74381175D01*
X107979294Y-74489014D01*
X108164866Y-74715134D01*
X108390986Y-74900706D01*
X108648966Y-75038599D01*
X108928889Y-75123513D01*
X109147050Y-75145000D01*
X109292950Y-75145000D01*
X109511111Y-75123513D01*
X109791034Y-75038599D01*
X110049014Y-74900706D01*
X110275134Y-74715134D01*
X110460706Y-74489014D01*
X110598599Y-74231034D01*
X110640147Y-74094069D01*
X114911240Y-74094069D01*
X114995137Y-74370648D01*
X115169226Y-74716908D01*
X115407522Y-75022552D01*
X115700867Y-75275834D01*
X116037989Y-75467020D01*
X116405931Y-75588763D01*
X116713000Y-75351170D01*
X116713000Y-73787000D01*
X115149514Y-73787000D01*
X114911240Y-74094069D01*
X110640147Y-74094069D01*
X110683513Y-73951111D01*
X110712185Y-73660000D01*
X110683513Y-73368889D01*
X110598599Y-73088966D01*
X110460706Y-72830986D01*
X110275134Y-72604866D01*
X110049014Y-72419294D01*
X109994209Y-72390000D01*
X110049014Y-72360706D01*
X110275134Y-72175134D01*
X110408506Y-72012620D01*
X111125026Y-72012620D01*
X111173224Y-72044825D01*
X111361582Y-72122846D01*
X111561541Y-72162620D01*
X111765419Y-72162620D01*
X111965378Y-72122846D01*
X112153736Y-72044825D01*
X112323254Y-71931557D01*
X112467417Y-71787394D01*
X112580685Y-71617876D01*
X112658706Y-71429518D01*
X112698480Y-71229559D01*
X112698480Y-71025681D01*
X112658706Y-70825722D01*
X112580685Y-70637364D01*
X112467417Y-70467846D01*
X112323254Y-70323683D01*
X112153736Y-70210415D01*
X111965378Y-70132394D01*
X111765419Y-70092620D01*
X111561541Y-70092620D01*
X111361582Y-70132394D01*
X111173224Y-70210415D01*
X111125026Y-70242620D01*
X110421013Y-70242620D01*
X110275134Y-70064866D01*
X110049014Y-69879294D01*
X109994209Y-69850000D01*
X110049014Y-69820706D01*
X110275134Y-69635134D01*
X110460706Y-69409014D01*
X110598599Y-69151034D01*
X110683513Y-68871111D01*
X110712185Y-68580000D01*
X110683513Y-68288889D01*
X110598599Y-68008966D01*
X110460706Y-67750986D01*
X110275134Y-67524866D01*
X110049014Y-67339294D01*
X109994209Y-67310000D01*
X110049014Y-67280706D01*
X110275134Y-67095134D01*
X110460706Y-66869014D01*
X110598599Y-66611034D01*
X110683513Y-66331111D01*
X110712185Y-66040000D01*
X110683513Y-65748889D01*
X110598599Y-65468966D01*
X110460706Y-65210986D01*
X110275134Y-64984866D01*
X110168069Y-64897000D01*
X114665002Y-64897000D01*
X114665001Y-68866681D01*
X114665001Y-68866681D01*
G37*
X114665001Y-68866681D02*
X114661325Y-68904003D01*
X114665001Y-68941325D01*
X114665001Y-68941335D01*
X114675998Y-69052988D01*
X114714927Y-69181323D01*
X114719455Y-69196249D01*
X114790027Y-69328279D01*
X114829872Y-69376829D01*
X114885000Y-69444004D01*
X114914003Y-69467807D01*
X115661448Y-70215251D01*
X115599294Y-70290986D01*
X115461401Y-70548966D01*
X115376487Y-70828889D01*
X115347815Y-71120000D01*
X115376487Y-71411111D01*
X115461401Y-71691034D01*
X115599294Y-71949014D01*
X115687123Y-72056033D01*
X115407522Y-72297448D01*
X115169226Y-72603092D01*
X114995137Y-72949352D01*
X114911240Y-73225931D01*
X115149514Y-73533000D01*
X116713000Y-73533000D01*
X116713000Y-73513000D01*
X116967000Y-73513000D01*
X116967000Y-73533000D01*
X116987000Y-73533000D01*
X116987000Y-73787000D01*
X116967000Y-73787000D01*
X116967000Y-75351170D01*
X117274069Y-75588763D01*
X117642011Y-75467020D01*
X117979133Y-75275834D01*
X118272478Y-75022552D01*
X118439079Y-74808866D01*
X118550986Y-74900706D01*
X118605791Y-74930000D01*
X118550986Y-74959294D01*
X118324866Y-75144866D01*
X118139294Y-75370986D01*
X118001401Y-75628966D01*
X117916487Y-75908889D01*
X117887815Y-76200000D01*
X117916487Y-76491111D01*
X118001401Y-76771034D01*
X118139294Y-77029014D01*
X118324866Y-77255134D01*
X118550986Y-77440706D01*
X118605791Y-77470000D01*
X118550986Y-77499294D01*
X118324866Y-77684866D01*
X118139294Y-77910986D01*
X118081653Y-78018825D01*
X118038932Y-77938899D01*
X117859608Y-77720392D01*
X117641101Y-77541068D01*
X117391808Y-77407818D01*
X117121309Y-77325764D01*
X116910492Y-77305000D01*
X116769508Y-77305000D01*
X116558691Y-77325764D01*
X116288192Y-77407818D01*
X116038899Y-77541068D01*
X115820392Y-77720392D01*
X115641068Y-77938899D01*
X115570000Y-78071858D01*
X115498932Y-77938899D01*
X115319608Y-77720392D01*
X115101101Y-77541068D01*
X114851808Y-77407818D01*
X114581309Y-77325764D01*
X114370492Y-77305000D01*
X114229508Y-77305000D01*
X114018691Y-77325764D01*
X113748192Y-77407818D01*
X113498899Y-77541068D01*
X113280392Y-77720392D01*
X113101068Y-77938899D01*
X113030000Y-78071858D01*
X112958932Y-77938899D01*
X112779608Y-77720392D01*
X112561101Y-77541068D01*
X112311808Y-77407818D01*
X112041309Y-77325764D01*
X111830492Y-77305000D01*
X111689508Y-77305000D01*
X111478691Y-77325764D01*
X111208192Y-77407818D01*
X110958899Y-77541068D01*
X110740392Y-77720392D01*
X110561068Y-77938899D01*
X110427818Y-78188192D01*
X110345764Y-78458691D01*
X110318057Y-78740000D01*
X110345764Y-79021309D01*
X110427818Y-79291808D01*
X110561068Y-79541101D01*
X110740392Y-79759608D01*
X110958899Y-79938932D01*
X111208192Y-80072182D01*
X111478691Y-80154236D01*
X111689508Y-80175000D01*
X111830492Y-80175000D01*
X112041309Y-80154236D01*
X112311808Y-80072182D01*
X112561101Y-79938932D01*
X112779608Y-79759608D01*
X112958932Y-79541101D01*
X113030000Y-79408142D01*
X113101068Y-79541101D01*
X113280392Y-79759608D01*
X113498899Y-79938932D01*
X113748192Y-80072182D01*
X114018691Y-80154236D01*
X114229508Y-80175000D01*
X114370492Y-80175000D01*
X114581309Y-80154236D01*
X114851808Y-80072182D01*
X115101101Y-79938932D01*
X115319608Y-79759608D01*
X115498932Y-79541101D01*
X115570000Y-79408142D01*
X115641068Y-79541101D01*
X115820392Y-79759608D01*
X116038899Y-79938932D01*
X116288192Y-80072182D01*
X116558691Y-80154236D01*
X116769508Y-80175000D01*
X116910492Y-80175000D01*
X117121309Y-80154236D01*
X117391808Y-80072182D01*
X117641101Y-79938932D01*
X117859608Y-79759608D01*
X118038932Y-79541101D01*
X118081653Y-79461175D01*
X118139294Y-79569014D01*
X118324866Y-79795134D01*
X118550986Y-79980706D01*
X118605791Y-80010000D01*
X118550986Y-80039294D01*
X118324866Y-80224866D01*
X118139294Y-80450986D01*
X118001401Y-80708966D01*
X117916487Y-80988889D01*
X117887815Y-81280000D01*
X117916487Y-81571111D01*
X118001401Y-81851034D01*
X118139294Y-82109014D01*
X118324866Y-82335134D01*
X118550986Y-82520706D01*
X118605791Y-82550000D01*
X118550986Y-82579294D01*
X118324866Y-82764866D01*
X118139294Y-82990986D01*
X118001401Y-83248966D01*
X117916487Y-83528889D01*
X117887815Y-83820000D01*
X117916487Y-84111111D01*
X118001401Y-84391034D01*
X118139294Y-84649014D01*
X118324866Y-84875134D01*
X118550986Y-85060706D01*
X118605791Y-85090000D01*
X118550986Y-85119294D01*
X118324866Y-85304866D01*
X118139294Y-85530986D01*
X118001401Y-85788966D01*
X117916487Y-86068889D01*
X117887815Y-86360000D01*
X117916487Y-86651111D01*
X118001401Y-86931034D01*
X118139294Y-87189014D01*
X118324866Y-87415134D01*
X118550986Y-87600706D01*
X118605791Y-87630000D01*
X118550986Y-87659294D01*
X118324866Y-87844866D01*
X118139294Y-88070986D01*
X118082690Y-88176886D01*
X117954637Y-87985241D01*
X117754759Y-87785363D01*
X117519727Y-87628320D01*
X117258574Y-87520147D01*
X116981335Y-87465000D01*
X116698665Y-87465000D01*
X116421426Y-87520147D01*
X116160273Y-87628320D01*
X115925241Y-87785363D01*
X115725363Y-87985241D01*
X115570000Y-88217759D01*
X115414637Y-87985241D01*
X115214759Y-87785363D01*
X114979727Y-87628320D01*
X114718574Y-87520147D01*
X114441335Y-87465000D01*
X114158665Y-87465000D01*
X113881426Y-87520147D01*
X113620273Y-87628320D01*
X113385241Y-87785363D01*
X113185363Y-87985241D01*
X113030000Y-88217759D01*
X112874637Y-87985241D01*
X112674759Y-87785363D01*
X112439727Y-87628320D01*
X112178574Y-87520147D01*
X111901335Y-87465000D01*
X111618665Y-87465000D01*
X111341426Y-87520147D01*
X111080273Y-87628320D01*
X110845241Y-87785363D01*
X110645363Y-87985241D01*
X110488320Y-88220273D01*
X110380147Y-88481426D01*
X110325000Y-88758665D01*
X110325000Y-89041335D01*
X110380147Y-89318574D01*
X110488320Y-89579727D01*
X110645363Y-89814759D01*
X110845241Y-90014637D01*
X111080273Y-90171680D01*
X111341426Y-90279853D01*
X111618665Y-90335000D01*
X111901335Y-90335000D01*
X112178574Y-90279853D01*
X112439727Y-90171680D01*
X112674759Y-90014637D01*
X112874637Y-89814759D01*
X113030000Y-89582241D01*
X113185363Y-89814759D01*
X113385241Y-90014637D01*
X113620273Y-90171680D01*
X113881426Y-90279853D01*
X114158665Y-90335000D01*
X114441335Y-90335000D01*
X114718574Y-90279853D01*
X114979727Y-90171680D01*
X115214759Y-90014637D01*
X115414637Y-89814759D01*
X115570000Y-89582241D01*
X115725363Y-89814759D01*
X115925241Y-90014637D01*
X116160273Y-90171680D01*
X116421426Y-90279853D01*
X116698665Y-90335000D01*
X116981335Y-90335000D01*
X117258574Y-90279853D01*
X117519727Y-90171680D01*
X117754759Y-90014637D01*
X117954637Y-89814759D01*
X118082690Y-89623114D01*
X118139294Y-89729014D01*
X118324866Y-89955134D01*
X118354687Y-89979607D01*
X118285820Y-90000498D01*
X118175506Y-90059463D01*
X118078815Y-90138815D01*
X117999463Y-90235506D01*
X117940498Y-90345820D01*
X117904188Y-90465518D01*
X117891928Y-90590000D01*
X117891928Y-92290000D01*
X117904188Y-92414482D01*
X117940498Y-92534180D01*
X117999463Y-92644494D01*
X118078815Y-92741185D01*
X118175506Y-92820537D01*
X118285820Y-92879502D01*
X118405518Y-92915812D01*
X118530000Y-92928072D01*
X120230000Y-92928072D01*
X120354482Y-92915812D01*
X120474180Y-92879502D01*
X120584494Y-92820537D01*
X120681185Y-92741185D01*
X120760537Y-92644494D01*
X120819502Y-92534180D01*
X120855812Y-92414482D01*
X120856621Y-92406272D01*
X120900392Y-92459608D01*
X121118899Y-92638932D01*
X121368192Y-92772182D01*
X121638691Y-92854236D01*
X121849508Y-92875000D01*
X121990492Y-92875000D01*
X122201309Y-92854236D01*
X122471808Y-92772182D01*
X122721101Y-92638932D01*
X122939608Y-92459608D01*
X123118932Y-92241101D01*
X123165001Y-92154912D01*
X123165001Y-95172706D01*
X123124494Y-95139463D01*
X123014180Y-95080498D01*
X122894482Y-95044188D01*
X122770000Y-95031928D01*
X121070000Y-95031928D01*
X120945518Y-95044188D01*
X120825820Y-95080498D01*
X120715506Y-95139463D01*
X120618815Y-95218815D01*
X120539463Y-95315506D01*
X120480498Y-95425820D01*
X120459607Y-95494687D01*
X120435134Y-95464866D01*
X120209014Y-95279294D01*
X119951034Y-95141401D01*
X119671111Y-95056487D01*
X119452950Y-95035000D01*
X119307050Y-95035000D01*
X119088889Y-95056487D01*
X118808966Y-95141401D01*
X118550986Y-95279294D01*
X118324866Y-95464866D01*
X118139294Y-95690986D01*
X118110000Y-95745791D01*
X118080706Y-95690986D01*
X117895134Y-95464866D01*
X117669014Y-95279294D01*
X117411034Y-95141401D01*
X117131111Y-95056487D01*
X116912950Y-95035000D01*
X116767050Y-95035000D01*
X116548889Y-95056487D01*
X116268966Y-95141401D01*
X116010986Y-95279294D01*
X115903967Y-95367123D01*
X115662552Y-95087522D01*
X115356908Y-94849226D01*
X115010648Y-94675137D01*
X114734069Y-94591240D01*
X114427000Y-94829514D01*
X114427000Y-96393000D01*
X114447000Y-96393000D01*
X114447000Y-96647000D01*
X114427000Y-96647000D01*
X114427000Y-98210486D01*
X114734069Y-98448760D01*
X115010648Y-98364863D01*
X115356908Y-98190774D01*
X115662552Y-97952478D01*
X115903967Y-97672877D01*
X116010986Y-97760706D01*
X116268966Y-97898599D01*
X116548889Y-97983513D01*
X116767050Y-98005000D01*
X116912950Y-98005000D01*
X117131111Y-97983513D01*
X117411034Y-97898599D01*
X117669014Y-97760706D01*
X117895134Y-97575134D01*
X118080706Y-97349014D01*
X118110000Y-97294209D01*
X118139294Y-97349014D01*
X118324866Y-97575134D01*
X118550986Y-97760706D01*
X118808966Y-97898599D01*
X119088889Y-97983513D01*
X119307050Y-98005000D01*
X119452950Y-98005000D01*
X119671111Y-97983513D01*
X119951034Y-97898599D01*
X120209014Y-97760706D01*
X120435134Y-97575134D01*
X120459607Y-97545313D01*
X120480498Y-97614180D01*
X120539463Y-97724494D01*
X120618815Y-97821185D01*
X120715506Y-97900537D01*
X120825820Y-97959502D01*
X120945518Y-97995812D01*
X121070000Y-98008072D01*
X122770000Y-98008072D01*
X122894482Y-97995812D01*
X123014180Y-97959502D01*
X123124494Y-97900537D01*
X123165001Y-97867294D01*
X123165001Y-100305000D01*
X102895000Y-100305000D01*
X102895000Y-97340980D01*
X102899294Y-97349014D01*
X103084866Y-97575134D01*
X103310986Y-97760706D01*
X103568966Y-97898599D01*
X103848889Y-97983513D01*
X104067050Y-98005000D01*
X104212950Y-98005000D01*
X104431111Y-97983513D01*
X104711034Y-97898599D01*
X104969014Y-97760706D01*
X105195134Y-97575134D01*
X105380706Y-97349014D01*
X105410000Y-97294209D01*
X105439294Y-97349014D01*
X105624866Y-97575134D01*
X105850986Y-97760706D01*
X106108966Y-97898599D01*
X106388889Y-97983513D01*
X106607050Y-98005000D01*
X106752950Y-98005000D01*
X106971111Y-97983513D01*
X107251034Y-97898599D01*
X107509014Y-97760706D01*
X107735134Y-97575134D01*
X107920706Y-97349014D01*
X107950000Y-97294209D01*
X107979294Y-97349014D01*
X108164866Y-97575134D01*
X108390986Y-97760706D01*
X108648966Y-97898599D01*
X108928889Y-97983513D01*
X109147050Y-98005000D01*
X109292950Y-98005000D01*
X109511111Y-97983513D01*
X109791034Y-97898599D01*
X110049014Y-97760706D01*
X110275134Y-97575134D01*
X110460706Y-97349014D01*
X110490000Y-97294209D01*
X110519294Y-97349014D01*
X110704866Y-97575134D01*
X110930986Y-97760706D01*
X111188966Y-97898599D01*
X111468889Y-97983513D01*
X111687050Y-98005000D01*
X111832950Y-98005000D01*
X112051111Y-97983513D01*
X112331034Y-97898599D01*
X112589014Y-97760706D01*
X112696033Y-97672877D01*
X112937448Y-97952478D01*
X113243092Y-98190774D01*
X113589352Y-98364863D01*
X113865931Y-98448760D01*
X114173000Y-98210486D01*
X114173000Y-96647000D01*
X114153000Y-96647000D01*
X114153000Y-96393000D01*
X114173000Y-96393000D01*
X114173000Y-94829514D01*
X113865931Y-94591240D01*
X113589352Y-94675137D01*
X113243092Y-94849226D01*
X112937448Y-95087522D01*
X112696033Y-95367123D01*
X112589014Y-95279294D01*
X112331034Y-95141401D01*
X112051111Y-95056487D01*
X111832950Y-95035000D01*
X111687050Y-95035000D01*
X111468889Y-95056487D01*
X111188966Y-95141401D01*
X110930986Y-95279294D01*
X110704866Y-95464866D01*
X110519294Y-95690986D01*
X110490000Y-95745791D01*
X110460706Y-95690986D01*
X110275134Y-95464866D01*
X110049014Y-95279294D01*
X109791034Y-95141401D01*
X109511111Y-95056487D01*
X109292950Y-95035000D01*
X109147050Y-95035000D01*
X108928889Y-95056487D01*
X108648966Y-95141401D01*
X108390986Y-95279294D01*
X108164866Y-95464866D01*
X107979294Y-95690986D01*
X107950000Y-95745791D01*
X107920706Y-95690986D01*
X107735134Y-95464866D01*
X107509014Y-95279294D01*
X107251034Y-95141401D01*
X106971111Y-95056487D01*
X106752950Y-95035000D01*
X106607050Y-95035000D01*
X106388889Y-95056487D01*
X106108966Y-95141401D01*
X105850986Y-95279294D01*
X105624866Y-95464866D01*
X105439294Y-95690986D01*
X105410000Y-95745791D01*
X105380706Y-95690986D01*
X105195134Y-95464866D01*
X104969014Y-95279294D01*
X104711034Y-95141401D01*
X104431111Y-95056487D01*
X104212950Y-95035000D01*
X104067050Y-95035000D01*
X103848889Y-95056487D01*
X103568966Y-95141401D01*
X103310986Y-95279294D01*
X103084866Y-95464866D01*
X102899294Y-95690986D01*
X102895000Y-95699020D01*
X102895000Y-92964426D01*
X103000867Y-93055834D01*
X103337989Y-93247020D01*
X103705931Y-93368763D01*
X104013000Y-93131170D01*
X104013000Y-91567000D01*
X104267000Y-91567000D01*
X104267000Y-93131170D01*
X104574069Y-93368763D01*
X104942011Y-93247020D01*
X105279133Y-93055834D01*
X105448031Y-92910003D01*
X105567047Y-93013112D01*
X105895331Y-93200011D01*
X106253769Y-93319274D01*
X106553000Y-93081064D01*
X106553000Y-91567000D01*
X106807000Y-91567000D01*
X106807000Y-93081064D01*
X107106231Y-93319274D01*
X107464669Y-93200011D01*
X107792953Y-93013112D01*
X108078467Y-92765759D01*
X108310239Y-92467458D01*
X108479362Y-92129672D01*
X108559270Y-91866230D01*
X108320341Y-91567000D01*
X106807000Y-91567000D01*
X106553000Y-91567000D01*
X104267000Y-91567000D01*
X104013000Y-91567000D01*
X103993000Y-91567000D01*
X103993000Y-91313000D01*
X104013000Y-91313000D01*
X104013000Y-91293000D01*
X104267000Y-91293000D01*
X104267000Y-91313000D01*
X106553000Y-91313000D01*
X106553000Y-91293000D01*
X106807000Y-91293000D01*
X106807000Y-91313000D01*
X108320341Y-91313000D01*
X108559270Y-91013770D01*
X108479362Y-90750328D01*
X108310239Y-90412542D01*
X108078467Y-90114241D01*
X107792953Y-89866888D01*
X107758821Y-89847456D01*
X107878932Y-89701101D01*
X108012182Y-89451808D01*
X108094236Y-89181309D01*
X108121943Y-88900000D01*
X108094236Y-88618691D01*
X108012182Y-88348192D01*
X107878932Y-88098899D01*
X107699608Y-87880392D01*
X107481101Y-87701068D01*
X107348142Y-87630000D01*
X107481101Y-87558932D01*
X107699608Y-87379608D01*
X107878932Y-87161101D01*
X108012182Y-86911808D01*
X108094236Y-86641309D01*
X108121943Y-86360000D01*
X108094236Y-86078691D01*
X108012182Y-85808192D01*
X107878932Y-85558899D01*
X107699608Y-85340392D01*
X107481101Y-85161068D01*
X107348142Y-85090000D01*
X107481101Y-85018932D01*
X107699608Y-84839608D01*
X107878932Y-84621101D01*
X108012182Y-84371808D01*
X108094236Y-84101309D01*
X108121943Y-83820000D01*
X108094236Y-83538691D01*
X108012182Y-83268192D01*
X107878932Y-83018899D01*
X107699608Y-82800392D01*
X107481101Y-82621068D01*
X107348142Y-82550000D01*
X107481101Y-82478932D01*
X107699608Y-82299608D01*
X107878932Y-82081101D01*
X108012182Y-81831808D01*
X108094236Y-81561309D01*
X108121943Y-81280000D01*
X108094236Y-80998691D01*
X108012182Y-80728192D01*
X107878932Y-80478899D01*
X107699608Y-80260392D01*
X107481101Y-80081068D01*
X107348142Y-80010000D01*
X107481101Y-79938932D01*
X107699608Y-79759608D01*
X107878932Y-79541101D01*
X108012182Y-79291808D01*
X108094236Y-79021309D01*
X108121943Y-78740000D01*
X108094236Y-78458691D01*
X108012182Y-78188192D01*
X107878932Y-77938899D01*
X107699608Y-77720392D01*
X107481101Y-77541068D01*
X107348142Y-77470000D01*
X107481101Y-77398932D01*
X107699608Y-77219608D01*
X107878932Y-77001101D01*
X108012182Y-76751808D01*
X108094236Y-76481309D01*
X108121943Y-76200000D01*
X108094236Y-75918691D01*
X108012182Y-75648192D01*
X107878932Y-75398899D01*
X107699608Y-75180392D01*
X107481101Y-75001068D01*
X107348142Y-74930000D01*
X107481101Y-74858932D01*
X107699608Y-74679608D01*
X107878932Y-74461101D01*
X107921653Y-74381175D01*
X107979294Y-74489014D01*
X108164866Y-74715134D01*
X108390986Y-74900706D01*
X108648966Y-75038599D01*
X108928889Y-75123513D01*
X109147050Y-75145000D01*
X109292950Y-75145000D01*
X109511111Y-75123513D01*
X109791034Y-75038599D01*
X110049014Y-74900706D01*
X110275134Y-74715134D01*
X110460706Y-74489014D01*
X110598599Y-74231034D01*
X110640147Y-74094069D01*
X114911240Y-74094069D01*
X114995137Y-74370648D01*
X115169226Y-74716908D01*
X115407522Y-75022552D01*
X115700867Y-75275834D01*
X116037989Y-75467020D01*
X116405931Y-75588763D01*
X116713000Y-75351170D01*
X116713000Y-73787000D01*
X115149514Y-73787000D01*
X114911240Y-74094069D01*
X110640147Y-74094069D01*
X110683513Y-73951111D01*
X110712185Y-73660000D01*
X110683513Y-73368889D01*
X110598599Y-73088966D01*
X110460706Y-72830986D01*
X110275134Y-72604866D01*
X110049014Y-72419294D01*
X109994209Y-72390000D01*
X110049014Y-72360706D01*
X110275134Y-72175134D01*
X110408506Y-72012620D01*
X111125026Y-72012620D01*
X111173224Y-72044825D01*
X111361582Y-72122846D01*
X111561541Y-72162620D01*
X111765419Y-72162620D01*
X111965378Y-72122846D01*
X112153736Y-72044825D01*
X112323254Y-71931557D01*
X112467417Y-71787394D01*
X112580685Y-71617876D01*
X112658706Y-71429518D01*
X112698480Y-71229559D01*
X112698480Y-71025681D01*
X112658706Y-70825722D01*
X112580685Y-70637364D01*
X112467417Y-70467846D01*
X112323254Y-70323683D01*
X112153736Y-70210415D01*
X111965378Y-70132394D01*
X111765419Y-70092620D01*
X111561541Y-70092620D01*
X111361582Y-70132394D01*
X111173224Y-70210415D01*
X111125026Y-70242620D01*
X110421013Y-70242620D01*
X110275134Y-70064866D01*
X110049014Y-69879294D01*
X109994209Y-69850000D01*
X110049014Y-69820706D01*
X110275134Y-69635134D01*
X110460706Y-69409014D01*
X110598599Y-69151034D01*
X110683513Y-68871111D01*
X110712185Y-68580000D01*
X110683513Y-68288889D01*
X110598599Y-68008966D01*
X110460706Y-67750986D01*
X110275134Y-67524866D01*
X110049014Y-67339294D01*
X109994209Y-67310000D01*
X110049014Y-67280706D01*
X110275134Y-67095134D01*
X110460706Y-66869014D01*
X110598599Y-66611034D01*
X110683513Y-66331111D01*
X110712185Y-66040000D01*
X110683513Y-65748889D01*
X110598599Y-65468966D01*
X110460706Y-65210986D01*
X110275134Y-64984866D01*
X110168069Y-64897000D01*
X114665002Y-64897000D01*
X114665001Y-68866681D01*
G36*
X123165001Y-80565087D02*
G01*
X123118932Y-80478899D01*
X122998821Y-80332544D01*
X123032953Y-80313112D01*
X123165001Y-80198714D01*
X123165001Y-80565087D01*
X123165001Y-80565087D01*
G37*
X123165001Y-80565087D02*
X123118932Y-80478899D01*
X122998821Y-80332544D01*
X123032953Y-80313112D01*
X123165001Y-80198714D01*
X123165001Y-80565087D01*
G36*
X122047000Y-78613000D02*
G01*
X122067000Y-78613000D01*
X122067000Y-78867000D01*
X122047000Y-78867000D01*
X122047000Y-78887000D01*
X121793000Y-78887000D01*
X121793000Y-78867000D01*
X121773000Y-78867000D01*
X121773000Y-78613000D01*
X121793000Y-78613000D01*
X121793000Y-78593000D01*
X122047000Y-78593000D01*
X122047000Y-78613000D01*
X122047000Y-78613000D01*
G37*
X122047000Y-78613000D02*
X122067000Y-78613000D01*
X122067000Y-78867000D01*
X122047000Y-78867000D01*
X122047000Y-78887000D01*
X121793000Y-78887000D01*
X121793000Y-78867000D01*
X121773000Y-78867000D01*
X121773000Y-78613000D01*
X121793000Y-78613000D01*
X121793000Y-78593000D01*
X122047000Y-78593000D01*
X122047000Y-78613000D01*
M02*
