M48
; DRILL file {KiCad (5.1.2)-1} date 14.07.2019 14:04:19
; FORMAT={-:-/ absolute / inch / decimal}
; #@! TF.CreationDate,2019-07-14T14:04:19+02:00
; #@! TF.GenerationSoftware,Kicad,Pcbnew,(5.1.2)-1
FMAT,2
INCH
T1C0.0157
T2C0.0315
T3C0.0394
%
G90
G05
T1
X4.3962Y-2.8003
T2
X4.5Y-3.1
X4.5Y-3.5
X4.6Y-3.1
X4.6Y-3.5
X4.1Y-2.3
X4.1Y-2.3984
X4.4Y-3.1
X4.4Y-3.5
T3
X4.7Y-2.5
X4.7Y-2.6
X4.7Y-2.7
X4.7Y-2.8
X4.7Y-2.9
X4.7Y-3.0
X4.7Y-3.1
X4.7Y-3.2
X4.7Y-3.3
X4.7Y-3.4
X4.7Y-3.5
X4.7Y-3.6
X4.2Y-2.3
X4.2Y-2.4
X4.2Y-2.5
X4.2Y-2.6
X4.2Y-2.7
X4.2Y-2.8
X4.2Y-2.9
X4.2Y-3.0
X4.2Y-3.1
X4.2Y-3.2
X4.2Y-3.3
X4.2Y-3.4
X4.2Y-3.5
X4.2Y-3.6
X4.8Y-2.3
X4.8Y-2.4
X4.8Y-2.5
X4.8Y-2.6
X4.8Y-2.7
X4.8Y-2.8
X4.8Y-2.9
X4.8Y-3.0
X4.8Y-3.1
X4.8Y-3.2
X4.8Y-3.3
X4.8Y-3.4
X4.8Y-3.5
X4.8Y-3.6
X4.3Y-2.6
X4.3Y-2.7
X4.3Y-2.8
X4.3Y-2.9
X4.6Y-2.6
X4.6Y-2.7
X4.6Y-2.8
X4.6Y-2.9
X4.1Y-2.5
X4.1Y-2.6
X4.1Y-2.7
X4.1Y-2.8
X4.1Y-2.9
X4.1Y-3.0
X4.1Y-3.1
X4.1Y-3.2
X4.1Y-3.3
X4.1Y-3.4
X4.1Y-3.5
X4.1Y-3.6
X4.1Y-3.8
X4.2Y-3.8
X4.3Y-3.8
X4.4Y-3.8
X4.5Y-3.8
X4.6Y-3.8
X4.7Y-3.8
X4.8Y-3.8
T0
M30
